%TF.GenerationSoftware,KiCad,Pcbnew,(6.0.6-0)*%
%TF.CreationDate,2022-09-18T15:36:00+02:00*%
%TF.ProjectId,magnetic-18350-holder-charger,6d61676e-6574-4696-932d-31383335302d,rev?*%
%TF.SameCoordinates,Original*%
%TF.FileFunction,Legend,Top*%
%TF.FilePolarity,Positive*%
%FSLAX46Y46*%
G04 Gerber Fmt 4.6, Leading zero omitted, Abs format (unit mm)*
G04 Created by KiCad (PCBNEW (6.0.6-0)) date 2022-09-18 15:36:00*
%MOMM*%
%LPD*%
G01*
G04 APERTURE LIST*
%ADD10C,0.150000*%
%ADD11C,0.120000*%
G04 APERTURE END LIST*
D10*
%TO.C,VBAT-*%
X168938095Y-101852380D02*
X169271428Y-102852380D01*
X169604761Y-101852380D01*
X170271428Y-102328571D02*
X170414285Y-102376190D01*
X170461904Y-102423809D01*
X170509523Y-102519047D01*
X170509523Y-102661904D01*
X170461904Y-102757142D01*
X170414285Y-102804761D01*
X170319047Y-102852380D01*
X169938095Y-102852380D01*
X169938095Y-101852380D01*
X170271428Y-101852380D01*
X170366666Y-101900000D01*
X170414285Y-101947619D01*
X170461904Y-102042857D01*
X170461904Y-102138095D01*
X170414285Y-102233333D01*
X170366666Y-102280952D01*
X170271428Y-102328571D01*
X169938095Y-102328571D01*
X170890476Y-102566666D02*
X171366666Y-102566666D01*
X170795238Y-102852380D02*
X171128571Y-101852380D01*
X171461904Y-102852380D01*
X171652380Y-101852380D02*
X172223809Y-101852380D01*
X171938095Y-102852380D02*
X171938095Y-101852380D01*
X172557142Y-102471428D02*
X173319047Y-102471428D01*
%TO.C,VBAT+*%
X104938095Y-101952380D02*
X105271428Y-102952380D01*
X105604761Y-101952380D01*
X106271428Y-102428571D02*
X106414285Y-102476190D01*
X106461904Y-102523809D01*
X106509523Y-102619047D01*
X106509523Y-102761904D01*
X106461904Y-102857142D01*
X106414285Y-102904761D01*
X106319047Y-102952380D01*
X105938095Y-102952380D01*
X105938095Y-101952380D01*
X106271428Y-101952380D01*
X106366666Y-102000000D01*
X106414285Y-102047619D01*
X106461904Y-102142857D01*
X106461904Y-102238095D01*
X106414285Y-102333333D01*
X106366666Y-102380952D01*
X106271428Y-102428571D01*
X105938095Y-102428571D01*
X106890476Y-102666666D02*
X107366666Y-102666666D01*
X106795238Y-102952380D02*
X107128571Y-101952380D01*
X107461904Y-102952380D01*
X107652380Y-101952380D02*
X108223809Y-101952380D01*
X107938095Y-102952380D02*
X107938095Y-101952380D01*
X108557142Y-102571428D02*
X109319047Y-102571428D01*
X108938095Y-102952380D02*
X108938095Y-102190476D01*
%TO.C,U3*%
X137752739Y-97873471D02*
X137752739Y-98682995D01*
X137800358Y-98778233D01*
X137847977Y-98825852D01*
X137943215Y-98873471D01*
X138133691Y-98873471D01*
X138228929Y-98825852D01*
X138276548Y-98778233D01*
X138324167Y-98682995D01*
X138324167Y-97873471D01*
X138705120Y-97873471D02*
X139324167Y-97873471D01*
X138990834Y-98254424D01*
X139133691Y-98254424D01*
X139228929Y-98302043D01*
X139276548Y-98349662D01*
X139324167Y-98444900D01*
X139324167Y-98682995D01*
X139276548Y-98778233D01*
X139228929Y-98825852D01*
X139133691Y-98873471D01*
X138847977Y-98873471D01*
X138752739Y-98825852D01*
X138705120Y-98778233D01*
X111619047Y-91073471D02*
X111047619Y-91073471D01*
X111333333Y-91073471D02*
X111333333Y-90073471D01*
X111238095Y-90216329D01*
X111142857Y-90311567D01*
X111047619Y-90359186D01*
X112190476Y-90502043D02*
X112095238Y-90454424D01*
X112047619Y-90406805D01*
X112000000Y-90311567D01*
X112000000Y-90263948D01*
X112047619Y-90168710D01*
X112095238Y-90121091D01*
X112190476Y-90073471D01*
X112380952Y-90073471D01*
X112476190Y-90121091D01*
X112523809Y-90168710D01*
X112571428Y-90263948D01*
X112571428Y-90311567D01*
X112523809Y-90406805D01*
X112476190Y-90454424D01*
X112380952Y-90502043D01*
X112190476Y-90502043D01*
X112095238Y-90549662D01*
X112047619Y-90597281D01*
X112000000Y-90692519D01*
X112000000Y-90882995D01*
X112047619Y-90978233D01*
X112095238Y-91025852D01*
X112190476Y-91073471D01*
X112380952Y-91073471D01*
X112476190Y-91025852D01*
X112523809Y-90978233D01*
X112571428Y-90882995D01*
X112571428Y-90692519D01*
X112523809Y-90597281D01*
X112476190Y-90549662D01*
X112380952Y-90502043D01*
X112904761Y-90073471D02*
X113523809Y-90073471D01*
X113190476Y-90454424D01*
X113333333Y-90454424D01*
X113428571Y-90502043D01*
X113476190Y-90549662D01*
X113523809Y-90644900D01*
X113523809Y-90882995D01*
X113476190Y-90978233D01*
X113428571Y-91025852D01*
X113333333Y-91073471D01*
X113047619Y-91073471D01*
X112952380Y-91025852D01*
X112904761Y-90978233D01*
X114428571Y-90073471D02*
X113952380Y-90073471D01*
X113904761Y-90549662D01*
X113952380Y-90502043D01*
X114047619Y-90454424D01*
X114285714Y-90454424D01*
X114380952Y-90502043D01*
X114428571Y-90549662D01*
X114476190Y-90644900D01*
X114476190Y-90882995D01*
X114428571Y-90978233D01*
X114380952Y-91025852D01*
X114285714Y-91073471D01*
X114047619Y-91073471D01*
X113952380Y-91025852D01*
X113904761Y-90978233D01*
X115095238Y-90073471D02*
X115190476Y-90073471D01*
X115285714Y-90121091D01*
X115333333Y-90168710D01*
X115380952Y-90263948D01*
X115428571Y-90454424D01*
X115428571Y-90692519D01*
X115380952Y-90882995D01*
X115333333Y-90978233D01*
X115285714Y-91025852D01*
X115190476Y-91073471D01*
X115095238Y-91073471D01*
X115000000Y-91025852D01*
X114952380Y-90978233D01*
X114904761Y-90882995D01*
X114857142Y-90692519D01*
X114857142Y-90454424D01*
X114904761Y-90263948D01*
X114952380Y-90168710D01*
X115000000Y-90121091D01*
X115095238Y-90073471D01*
X117095238Y-91073471D02*
X116619047Y-91073471D01*
X116619047Y-90073471D01*
X117428571Y-91073471D02*
X117428571Y-90406805D01*
X117428571Y-90073471D02*
X117380952Y-90121091D01*
X117428571Y-90168710D01*
X117476190Y-90121091D01*
X117428571Y-90073471D01*
X117428571Y-90168710D01*
X117761904Y-90406805D02*
X118142857Y-90406805D01*
X117904761Y-90073471D02*
X117904761Y-90930614D01*
X117952380Y-91025852D01*
X118047619Y-91073471D01*
X118142857Y-91073471D01*
X118476190Y-91073471D02*
X118476190Y-90073471D01*
X118904761Y-91073471D02*
X118904761Y-90549662D01*
X118857142Y-90454424D01*
X118761904Y-90406805D01*
X118619047Y-90406805D01*
X118523809Y-90454424D01*
X118476190Y-90502043D01*
X119380952Y-91073471D02*
X119380952Y-90406805D01*
X119380952Y-90073471D02*
X119333333Y-90121091D01*
X119380952Y-90168710D01*
X119428571Y-90121091D01*
X119380952Y-90073471D01*
X119380952Y-90168710D01*
X120285714Y-90406805D02*
X120285714Y-91073471D01*
X119857142Y-90406805D02*
X119857142Y-90930614D01*
X119904761Y-91025852D01*
X120000000Y-91073471D01*
X120142857Y-91073471D01*
X120238095Y-91025852D01*
X120285714Y-90978233D01*
X120761904Y-91073471D02*
X120761904Y-90406805D01*
X120761904Y-90502043D02*
X120809523Y-90454424D01*
X120904761Y-90406805D01*
X121047619Y-90406805D01*
X121142857Y-90454424D01*
X121190476Y-90549662D01*
X121190476Y-91073471D01*
X121190476Y-90549662D02*
X121238095Y-90454424D01*
X121333333Y-90406805D01*
X121476190Y-90406805D01*
X121571428Y-90454424D01*
X121619047Y-90549662D01*
X121619047Y-91073471D01*
X122761904Y-90073471D02*
X123380952Y-90073471D01*
X123047619Y-90454424D01*
X123190476Y-90454424D01*
X123285714Y-90502043D01*
X123333333Y-90549662D01*
X123380952Y-90644900D01*
X123380952Y-90882995D01*
X123333333Y-90978233D01*
X123285714Y-91025852D01*
X123190476Y-91073471D01*
X122904761Y-91073471D01*
X122809523Y-91025852D01*
X122761904Y-90978233D01*
X123809523Y-90978233D02*
X123857142Y-91025852D01*
X123809523Y-91073471D01*
X123761904Y-91025852D01*
X123809523Y-90978233D01*
X123809523Y-91073471D01*
X124190476Y-90073471D02*
X124857142Y-90073471D01*
X124428571Y-91073471D01*
X125095238Y-90073471D02*
X125428571Y-91073471D01*
X125761904Y-90073471D01*
X127428571Y-90978233D02*
X127380952Y-91025852D01*
X127238095Y-91073471D01*
X127142857Y-91073471D01*
X126999999Y-91025852D01*
X126904761Y-90930614D01*
X126857142Y-90835376D01*
X126809523Y-90644900D01*
X126809523Y-90502043D01*
X126857142Y-90311567D01*
X126904761Y-90216329D01*
X126999999Y-90121091D01*
X127142857Y-90073471D01*
X127238095Y-90073471D01*
X127380952Y-90121091D01*
X127428571Y-90168710D01*
X128238095Y-91025852D02*
X128142857Y-91073471D01*
X127952380Y-91073471D01*
X127857142Y-91025852D01*
X127809523Y-90930614D01*
X127809523Y-90549662D01*
X127857142Y-90454424D01*
X127952380Y-90406805D01*
X128142857Y-90406805D01*
X128238095Y-90454424D01*
X128285714Y-90549662D01*
X128285714Y-90644900D01*
X127809523Y-90740138D01*
X128857142Y-91073471D02*
X128761904Y-91025852D01*
X128714285Y-90930614D01*
X128714285Y-90073471D01*
X129380952Y-91073471D02*
X129285714Y-91025852D01*
X129238095Y-90930614D01*
X129238095Y-90073471D01*
X130523809Y-91073471D02*
X130523809Y-90073471D01*
X130523809Y-90549662D02*
X131095238Y-90549662D01*
X131095238Y-91073471D02*
X131095238Y-90073471D01*
X131714285Y-91073471D02*
X131619047Y-91025852D01*
X131571428Y-90978233D01*
X131523809Y-90882995D01*
X131523809Y-90597281D01*
X131571428Y-90502043D01*
X131619047Y-90454424D01*
X131714285Y-90406805D01*
X131857142Y-90406805D01*
X131952380Y-90454424D01*
X131999999Y-90502043D01*
X132047619Y-90597281D01*
X132047619Y-90882995D01*
X131999999Y-90978233D01*
X131952380Y-91025852D01*
X131857142Y-91073471D01*
X131714285Y-91073471D01*
X132619047Y-91073471D02*
X132523809Y-91025852D01*
X132476190Y-90930614D01*
X132476190Y-90073471D01*
X133428571Y-91073471D02*
X133428571Y-90073471D01*
X133428571Y-91025852D02*
X133333333Y-91073471D01*
X133142857Y-91073471D01*
X133047619Y-91025852D01*
X132999999Y-90978233D01*
X132952380Y-90882995D01*
X132952380Y-90597281D01*
X132999999Y-90502043D01*
X133047619Y-90454424D01*
X133142857Y-90406805D01*
X133333333Y-90406805D01*
X133428571Y-90454424D01*
X134285714Y-91025852D02*
X134190476Y-91073471D01*
X133999999Y-91073471D01*
X133904761Y-91025852D01*
X133857142Y-90930614D01*
X133857142Y-90549662D01*
X133904761Y-90454424D01*
X133999999Y-90406805D01*
X134190476Y-90406805D01*
X134285714Y-90454424D01*
X134333333Y-90549662D01*
X134333333Y-90644900D01*
X133857142Y-90740138D01*
X134761904Y-91073471D02*
X134761904Y-90406805D01*
X134761904Y-90597281D02*
X134809523Y-90502043D01*
X134857142Y-90454424D01*
X134952380Y-90406805D01*
X135047619Y-90406805D01*
X105571601Y-90482810D02*
X107095410Y-90482810D01*
X106333506Y-91244714D02*
X106333506Y-89720905D01*
X171071601Y-90513948D02*
X172595410Y-90513948D01*
D11*
%TO.C,VBAT-*%
X176500000Y-103700000D02*
X174100000Y-103700000D01*
X174100000Y-103700000D02*
X174100000Y-101300000D01*
X174100000Y-101300000D02*
X176500000Y-101300000D01*
X176500000Y-101300000D02*
X176500000Y-103700000D01*
%TO.C,VBAT+*%
X104000000Y-103700000D02*
X101600000Y-103700000D01*
X101600000Y-103700000D02*
X101600000Y-101300000D01*
X101600000Y-101300000D02*
X104000000Y-101300000D01*
X104000000Y-101300000D02*
X104000000Y-103700000D01*
%TO.C,kibuzzard-63271A4C*%
G36*
X124880684Y-78580285D02*
G01*
X124921624Y-78586358D01*
X124961772Y-78596414D01*
X125000741Y-78610358D01*
X125038155Y-78628053D01*
X125073655Y-78649331D01*
X125106899Y-78673986D01*
X125137565Y-78701781D01*
X125165360Y-78732447D01*
X125190015Y-78765691D01*
X125211292Y-78801190D01*
X125228988Y-78838605D01*
X125242931Y-78877574D01*
X125252988Y-78917721D01*
X125259061Y-78958662D01*
X125261092Y-79000000D01*
X125259061Y-79041338D01*
X125252988Y-79082279D01*
X125242931Y-79122426D01*
X125228988Y-79161395D01*
X125211292Y-79198810D01*
X125190015Y-79234309D01*
X125165360Y-79267553D01*
X125137565Y-79298219D01*
X125106899Y-79326014D01*
X125073655Y-79350669D01*
X125038155Y-79371947D01*
X125000741Y-79389642D01*
X124961772Y-79403586D01*
X124921624Y-79413642D01*
X124880684Y-79419715D01*
X124839346Y-79421746D01*
X121760654Y-79421746D01*
X121719316Y-79419715D01*
X121678376Y-79413642D01*
X121638228Y-79403586D01*
X121599259Y-79389642D01*
X121561845Y-79371947D01*
X121526345Y-79350669D01*
X121493101Y-79326014D01*
X121462435Y-79298219D01*
X121434640Y-79267553D01*
X121409985Y-79234309D01*
X121388708Y-79198810D01*
X121371012Y-79161395D01*
X121357069Y-79122426D01*
X121347012Y-79082279D01*
X121340939Y-79041338D01*
X121338908Y-79000000D01*
X121340939Y-78958662D01*
X121347012Y-78917721D01*
X121357069Y-78877574D01*
X121371012Y-78838605D01*
X121388708Y-78801190D01*
X121409985Y-78765691D01*
X121418701Y-78753938D01*
X121926019Y-78753938D01*
X121948641Y-78805928D01*
X121976025Y-78860697D01*
X122005394Y-78913084D01*
X122033969Y-78958725D01*
X121999242Y-78981148D01*
X121976025Y-79011906D01*
X121962928Y-79048816D01*
X121958563Y-79089694D01*
X121961837Y-79128290D01*
X121971659Y-79161528D01*
X122009362Y-79211931D01*
X122036350Y-79229195D01*
X122068100Y-79241300D01*
X122104216Y-79248444D01*
X122144300Y-79250825D01*
X122172081Y-79250031D01*
X122205419Y-79248047D01*
X122239947Y-79244078D01*
X122271300Y-79238125D01*
X122271300Y-78834900D01*
X122345912Y-78834900D01*
X122563400Y-78834900D01*
X122563400Y-78973013D01*
X122389569Y-78973013D01*
X122389569Y-79053975D01*
X122563400Y-79053975D01*
X122563400Y-79164306D01*
X122363375Y-79164306D01*
X122363375Y-79245269D01*
X122661031Y-79245269D01*
X122661031Y-79220663D01*
X122739612Y-79220663D01*
X122755884Y-79230188D01*
X122783269Y-79242094D01*
X122822559Y-79252016D01*
X122873756Y-79256381D01*
X122916817Y-79252313D01*
X122957100Y-79240109D01*
X122993414Y-79219770D01*
X123024569Y-79191294D01*
X123050167Y-79154880D01*
X123069812Y-79110728D01*
X123082314Y-79059035D01*
X123086481Y-79000000D01*
X123082909Y-78940370D01*
X123072194Y-78888478D01*
X123054930Y-78844425D01*
X123031712Y-78808309D01*
X123002840Y-78780131D01*
X122968609Y-78759891D01*
X122949492Y-78753938D01*
X123116644Y-78753938D01*
X123139266Y-78805928D01*
X123166650Y-78860697D01*
X123196019Y-78913084D01*
X123224594Y-78958725D01*
X123189867Y-78981148D01*
X123166650Y-79011906D01*
X123153553Y-79048816D01*
X123149187Y-79089694D01*
X123152462Y-79128290D01*
X123162284Y-79161528D01*
X123199987Y-79211931D01*
X123226975Y-79229195D01*
X123258725Y-79241300D01*
X123294841Y-79248444D01*
X123334925Y-79250825D01*
X123362706Y-79250031D01*
X123396044Y-79248047D01*
X123430572Y-79244078D01*
X123461925Y-79238125D01*
X123461925Y-78753938D01*
X123511931Y-78753938D01*
X123525028Y-78809643D01*
X123538284Y-78863729D01*
X123551698Y-78916196D01*
X123565271Y-78967044D01*
X123579003Y-79016272D01*
X123596292Y-79075977D01*
X123613630Y-79134045D01*
X123631019Y-79190475D01*
X123648456Y-79245269D01*
X123754819Y-79245269D01*
X123937381Y-79245269D01*
X124035013Y-79245269D01*
X124035013Y-79051594D01*
X124165188Y-79051594D01*
X124165188Y-79245269D01*
X124262819Y-79245269D01*
X124262819Y-78777750D01*
X124323144Y-78777750D01*
X124347750Y-78854744D01*
X124387834Y-78837281D01*
X124450938Y-78828550D01*
X124507591Y-78839762D01*
X124545791Y-78873397D01*
X124561886Y-78907660D01*
X124571543Y-78950655D01*
X124574763Y-79002381D01*
X124572084Y-79046831D01*
X124564047Y-79083344D01*
X124536266Y-79135334D01*
X124497372Y-79163116D01*
X124452525Y-79171450D01*
X124393391Y-79163116D01*
X124349338Y-79142875D01*
X124323938Y-79220663D01*
X124340209Y-79230188D01*
X124366800Y-79242094D01*
X124403709Y-79252016D01*
X124450938Y-79256381D01*
X124497471Y-79252115D01*
X124540234Y-79239316D01*
X124578334Y-79218281D01*
X124610878Y-79189309D01*
X124637370Y-79152698D01*
X124657313Y-79108744D01*
X124669814Y-79057745D01*
X124673981Y-79000000D01*
X124670558Y-78942007D01*
X124660289Y-78891058D01*
X124643174Y-78847154D01*
X124619213Y-78810294D01*
X124577232Y-78773252D01*
X124524315Y-78751027D01*
X124460463Y-78743619D01*
X124417104Y-78746298D01*
X124379103Y-78754334D01*
X124323144Y-78777750D01*
X124262819Y-78777750D01*
X124262819Y-78753938D01*
X124165188Y-78753938D01*
X124165188Y-78970631D01*
X124035013Y-78970631D01*
X124035013Y-78753938D01*
X123937381Y-78753938D01*
X123937381Y-79245269D01*
X123754819Y-79245269D01*
X123771636Y-79190922D01*
X123788752Y-79135037D01*
X123806164Y-79077614D01*
X123823875Y-79018653D01*
X123838131Y-78969838D01*
X123852323Y-78918958D01*
X123866452Y-78866015D01*
X123880517Y-78811008D01*
X123894519Y-78753938D01*
X123792919Y-78753938D01*
X123770694Y-78867444D01*
X123639725Y-78867444D01*
X123616706Y-78753938D01*
X123511931Y-78753938D01*
X123461925Y-78753938D01*
X123364294Y-78753938D01*
X123364294Y-78934913D01*
X123313494Y-78934913D01*
X123286605Y-78889966D01*
X123261503Y-78845616D01*
X123238782Y-78800670D01*
X123219037Y-78753938D01*
X123116644Y-78753938D01*
X122949492Y-78753938D01*
X122929418Y-78747687D01*
X122885663Y-78743619D01*
X122837145Y-78745603D01*
X122796366Y-78751556D01*
X122741994Y-78765844D01*
X122741994Y-79011113D01*
X122839625Y-79011113D01*
X122839625Y-78831725D01*
X122858675Y-78829344D01*
X122877725Y-78828550D01*
X122925152Y-78838968D01*
X122959481Y-78870222D01*
X122974915Y-78903163D01*
X122984176Y-78946422D01*
X122987262Y-79000000D01*
X122985576Y-79036413D01*
X122980516Y-79069453D01*
X122958291Y-79123428D01*
X122919000Y-79158750D01*
X122860262Y-79171450D01*
X122807875Y-79162719D01*
X122765012Y-79142875D01*
X122739612Y-79220663D01*
X122661031Y-79220663D01*
X122661031Y-78753938D01*
X122345912Y-78753938D01*
X122345912Y-78834900D01*
X122271300Y-78834900D01*
X122271300Y-78753938D01*
X122173669Y-78753938D01*
X122173669Y-78934913D01*
X122122869Y-78934913D01*
X122095980Y-78889966D01*
X122070878Y-78845616D01*
X122048157Y-78800670D01*
X122028412Y-78753938D01*
X121926019Y-78753938D01*
X121418701Y-78753938D01*
X121434640Y-78732447D01*
X121462435Y-78701781D01*
X121493101Y-78673986D01*
X121526345Y-78649331D01*
X121561845Y-78628053D01*
X121599259Y-78610358D01*
X121638228Y-78596414D01*
X121678376Y-78586358D01*
X121719316Y-78580285D01*
X121760654Y-78578254D01*
X124839346Y-78578254D01*
X124880684Y-78580285D01*
G37*
G36*
X123742516Y-78999206D02*
G01*
X123731403Y-79048022D01*
X123718703Y-79097234D01*
X123704019Y-79150019D01*
X123689334Y-79097234D01*
X123676634Y-79048022D01*
X123665919Y-78999206D01*
X123656394Y-78948406D01*
X123752438Y-78948406D01*
X123742516Y-78999206D01*
G37*
G36*
X123364294Y-79163513D02*
G01*
X123348419Y-79165497D01*
X123334925Y-79165894D01*
X123299802Y-79161330D01*
X123272219Y-79147638D01*
X123254359Y-79124222D01*
X123248406Y-79090488D01*
X123270631Y-79035322D01*
X123299802Y-79020737D01*
X123342862Y-79015875D01*
X123364294Y-79015875D01*
X123364294Y-79163513D01*
G37*
G36*
X122173669Y-79163513D02*
G01*
X122157794Y-79165497D01*
X122144300Y-79165894D01*
X122109177Y-79161330D01*
X122081594Y-79147638D01*
X122063734Y-79124222D01*
X122057781Y-79090488D01*
X122080006Y-79035322D01*
X122109177Y-79020737D01*
X122152237Y-79015875D01*
X122173669Y-79015875D01*
X122173669Y-79163513D01*
G37*
%TO.C,U3*%
X100850000Y-100285735D02*
X177275735Y-100282182D01*
X177814644Y-90521091D02*
X177825735Y-81310000D01*
X100303553Y-81310000D02*
X100300000Y-99735735D01*
X177825735Y-99732182D02*
X177814644Y-90521091D01*
X100853553Y-80760000D02*
X177275735Y-80760000D01*
X100853553Y-80760000D02*
G75*
G03*
X100303553Y-81310000I-1J-549999D01*
G01*
X100300000Y-99735735D02*
G75*
G03*
X100850000Y-100285735I549999J-1D01*
G01*
X177275735Y-100282182D02*
G75*
G03*
X177825735Y-99732182I-1J550001D01*
G01*
X177825735Y-81310000D02*
G75*
G03*
X177275735Y-80760000I-549991J9D01*
G01*
X107914645Y-90489953D02*
G75*
G03*
X107914645Y-90489953I-1581139J0D01*
G01*
X173414645Y-90553075D02*
G75*
G03*
X173414645Y-90553075I-1581139J0D01*
G01*
%TD*%
M02*
