%TF.GenerationSoftware,KiCad,Pcbnew,(6.0.6-0)*%
%TF.CreationDate,2022-09-18T15:49:11+02:00*%
%TF.ProjectId,magnetic-18350-holder-charger,6d61676e-6574-4696-932d-31383335302d,rev?*%
%TF.SameCoordinates,Original*%
%TF.FileFunction,Legend,Bot*%
%TF.FilePolarity,Positive*%
%FSLAX46Y46*%
G04 Gerber Fmt 4.6, Leading zero omitted, Abs format (unit mm)*
G04 Created by KiCad (PCBNEW (6.0.6-0)) date 2022-09-18 15:49:11*
%MOMM*%
%LPD*%
G01*
G04 APERTURE LIST*
%ADD10C,0.150000*%
%ADD11C,0.120000*%
%ADD12C,0.300000*%
G04 APERTURE END LIST*
D10*
%TO.C,U1*%
X122102380Y-89188095D02*
X122911904Y-89188095D01*
X123007142Y-89235714D01*
X123054761Y-89283333D01*
X123102380Y-89378571D01*
X123102380Y-89569047D01*
X123054761Y-89664285D01*
X123007142Y-89711904D01*
X122911904Y-89759523D01*
X122102380Y-89759523D01*
X123102380Y-90759523D02*
X123102380Y-90188095D01*
X123102380Y-90473809D02*
X122102380Y-90473809D01*
X122245238Y-90378571D01*
X122340476Y-90283333D01*
X122388095Y-90188095D01*
X126652380Y-95438095D02*
X127652380Y-95771428D01*
X126652380Y-96104761D01*
X127128571Y-96771428D02*
X127176190Y-96914285D01*
X127223809Y-96961904D01*
X127319047Y-97009523D01*
X127461904Y-97009523D01*
X127557142Y-96961904D01*
X127604761Y-96914285D01*
X127652380Y-96819047D01*
X127652380Y-96438095D01*
X126652380Y-96438095D01*
X126652380Y-96771428D01*
X126700000Y-96866666D01*
X126747619Y-96914285D01*
X126842857Y-96961904D01*
X126938095Y-96961904D01*
X127033333Y-96914285D01*
X127080952Y-96866666D01*
X127128571Y-96771428D01*
X127128571Y-96438095D01*
X127366666Y-97390476D02*
X127366666Y-97866666D01*
X127652380Y-97295238D02*
X126652380Y-97628571D01*
X127652380Y-97961904D01*
X126652380Y-98152380D02*
X126652380Y-98723809D01*
X127652380Y-98438095D02*
X126652380Y-98438095D01*
X127271428Y-99057142D02*
X127271428Y-99819047D01*
X129650000Y-97588095D02*
X129602380Y-97492857D01*
X129602380Y-97350000D01*
X129650000Y-97207142D01*
X129745238Y-97111904D01*
X129840476Y-97064285D01*
X130030952Y-97016666D01*
X130173809Y-97016666D01*
X130364285Y-97064285D01*
X130459523Y-97111904D01*
X130554761Y-97207142D01*
X130602380Y-97350000D01*
X130602380Y-97445238D01*
X130554761Y-97588095D01*
X130507142Y-97635714D01*
X130173809Y-97635714D01*
X130173809Y-97445238D01*
X130602380Y-98064285D02*
X129602380Y-98064285D01*
X130602380Y-98635714D01*
X129602380Y-98635714D01*
X130602380Y-99111904D02*
X129602380Y-99111904D01*
X129602380Y-99350000D01*
X129650000Y-99492857D01*
X129745238Y-99588095D01*
X129840476Y-99635714D01*
X130030952Y-99683333D01*
X130173809Y-99683333D01*
X130364285Y-99635714D01*
X130459523Y-99588095D01*
X130554761Y-99492857D01*
X130602380Y-99350000D01*
X130602380Y-99111904D01*
X118902380Y-95488095D02*
X119902380Y-95821428D01*
X118902380Y-96154761D01*
X119378571Y-96821428D02*
X119426190Y-96964285D01*
X119473809Y-97011904D01*
X119569047Y-97059523D01*
X119711904Y-97059523D01*
X119807142Y-97011904D01*
X119854761Y-96964285D01*
X119902380Y-96869047D01*
X119902380Y-96488095D01*
X118902380Y-96488095D01*
X118902380Y-96821428D01*
X118950000Y-96916666D01*
X118997619Y-96964285D01*
X119092857Y-97011904D01*
X119188095Y-97011904D01*
X119283333Y-96964285D01*
X119330952Y-96916666D01*
X119378571Y-96821428D01*
X119378571Y-96488095D01*
X119616666Y-97440476D02*
X119616666Y-97916666D01*
X119902380Y-97345238D02*
X118902380Y-97678571D01*
X119902380Y-98011904D01*
X118902380Y-98202380D02*
X118902380Y-98773809D01*
X119902380Y-98488095D02*
X118902380Y-98488095D01*
X119521428Y-99107142D02*
X119521428Y-99869047D01*
X119902380Y-99488095D02*
X119140476Y-99488095D01*
X116052380Y-80626190D02*
X117052380Y-80959523D01*
X116052380Y-81292857D01*
X117052380Y-81626190D02*
X116385714Y-81626190D01*
X116052380Y-81626190D02*
X116100000Y-81578571D01*
X116147619Y-81626190D01*
X116100000Y-81673809D01*
X116052380Y-81626190D01*
X116147619Y-81626190D01*
X116385714Y-82102380D02*
X117052380Y-82102380D01*
X116480952Y-82102380D02*
X116433333Y-82150000D01*
X116385714Y-82245238D01*
X116385714Y-82388095D01*
X116433333Y-82483333D01*
X116528571Y-82530952D01*
X117052380Y-82530952D01*
X116002380Y-96626190D02*
X117002380Y-96959523D01*
X116002380Y-97292857D01*
X117002380Y-97769047D02*
X116954761Y-97673809D01*
X116907142Y-97626190D01*
X116811904Y-97578571D01*
X116526190Y-97578571D01*
X116430952Y-97626190D01*
X116383333Y-97673809D01*
X116335714Y-97769047D01*
X116335714Y-97911904D01*
X116383333Y-98007142D01*
X116430952Y-98054761D01*
X116526190Y-98102380D01*
X116811904Y-98102380D01*
X116907142Y-98054761D01*
X116954761Y-98007142D01*
X117002380Y-97911904D01*
X117002380Y-97769047D01*
X116335714Y-98959523D02*
X117002380Y-98959523D01*
X116335714Y-98530952D02*
X116859523Y-98530952D01*
X116954761Y-98578571D01*
X117002380Y-98673809D01*
X117002380Y-98816666D01*
X116954761Y-98911904D01*
X116907142Y-98959523D01*
X116335714Y-99292857D02*
X116335714Y-99673809D01*
X116002380Y-99435714D02*
X116859523Y-99435714D01*
X116954761Y-99483333D01*
X117002380Y-99578571D01*
X117002380Y-99673809D01*
X129650000Y-81238095D02*
X129602380Y-81142857D01*
X129602380Y-81000000D01*
X129650000Y-80857142D01*
X129745238Y-80761904D01*
X129840476Y-80714285D01*
X130030952Y-80666666D01*
X130173809Y-80666666D01*
X130364285Y-80714285D01*
X130459523Y-80761904D01*
X130554761Y-80857142D01*
X130602380Y-81000000D01*
X130602380Y-81095238D01*
X130554761Y-81238095D01*
X130507142Y-81285714D01*
X130173809Y-81285714D01*
X130173809Y-81095238D01*
X130602380Y-81714285D02*
X129602380Y-81714285D01*
X130602380Y-82285714D01*
X129602380Y-82285714D01*
X130602380Y-82761904D02*
X129602380Y-82761904D01*
X129602380Y-83000000D01*
X129650000Y-83142857D01*
X129745238Y-83238095D01*
X129840476Y-83285714D01*
X130030952Y-83333333D01*
X130173809Y-83333333D01*
X130364285Y-83285714D01*
X130459523Y-83238095D01*
X130554761Y-83142857D01*
X130602380Y-83000000D01*
X130602380Y-82761904D01*
%TO.C,U2*%
X145452380Y-89738095D02*
X146261904Y-89738095D01*
X146357142Y-89785714D01*
X146404761Y-89833333D01*
X146452380Y-89928571D01*
X146452380Y-90119047D01*
X146404761Y-90214285D01*
X146357142Y-90261904D01*
X146261904Y-90309523D01*
X145452380Y-90309523D01*
X145547619Y-90738095D02*
X145500000Y-90785714D01*
X145452380Y-90880952D01*
X145452380Y-91119047D01*
X145500000Y-91214285D01*
X145547619Y-91261904D01*
X145642857Y-91309523D01*
X145738095Y-91309523D01*
X145880952Y-91261904D01*
X146452380Y-90690476D01*
X146452380Y-91309523D01*
D11*
%TO.C,REF\u002A\u002A*%
X151150000Y-77490000D02*
X148750000Y-77490000D01*
X148750000Y-77490000D02*
X148750000Y-79890000D01*
X148750000Y-79890000D02*
X151150000Y-79890000D01*
X151150000Y-79890000D02*
X151150000Y-77490000D01*
X145080000Y-79880000D02*
X147480000Y-79880000D01*
X147480000Y-79880000D02*
X147480000Y-77480000D01*
X147480000Y-77480000D02*
X145080000Y-77480000D01*
X145080000Y-77480000D02*
X145080000Y-79880000D01*
%TO.C,kibuzzard-63272085*%
G36*
X153643562Y-78389006D02*
G01*
X153672137Y-78392975D01*
X153672137Y-79053375D01*
X153654675Y-79054962D01*
X153637212Y-79054962D01*
X153525294Y-79029562D01*
X153452269Y-78959712D01*
X153412581Y-78854144D01*
X153403652Y-78790048D01*
X153400675Y-78720000D01*
X153410200Y-78596175D01*
X153443537Y-78489812D01*
X153508625Y-78415994D01*
X153614987Y-78388212D01*
X153643562Y-78389006D01*
G37*
G36*
X152788832Y-79559430D02*
G01*
X152706951Y-79547284D01*
X152626656Y-79527171D01*
X152548718Y-79499285D01*
X152473889Y-79463893D01*
X152402889Y-79421338D01*
X152336403Y-79372028D01*
X152275070Y-79316439D01*
X152219480Y-79255105D01*
X152170171Y-79188619D01*
X152127615Y-79117619D01*
X152092224Y-79042790D01*
X152064337Y-78964853D01*
X152044224Y-78884557D01*
X152032078Y-78802677D01*
X152028017Y-78720000D01*
X153202237Y-78720000D01*
X153210770Y-78846405D01*
X153236369Y-78952569D01*
X153277048Y-79039683D01*
X153330825Y-79108937D01*
X153396905Y-79161127D01*
X153474494Y-79197044D01*
X153562005Y-79217880D01*
X153657850Y-79224825D01*
X153760244Y-79219269D01*
X153802174Y-79212125D01*
X154026150Y-79212125D01*
X154183312Y-79212125D01*
X154229085Y-79103205D01*
X154277504Y-78994461D01*
X154328569Y-78885894D01*
X154382279Y-78777326D01*
X154438635Y-78668583D01*
X154497637Y-78559662D01*
X154497637Y-79212125D01*
X154673850Y-79212125D01*
X154673850Y-78278675D01*
X154804025Y-78278675D01*
X154854825Y-78434250D01*
X154940550Y-78394562D01*
X155045325Y-78377100D01*
X155162800Y-78402500D01*
X155241381Y-78473144D01*
X155285831Y-78581094D01*
X155295952Y-78647173D01*
X155299325Y-78720000D01*
X155293151Y-78827156D01*
X155274631Y-78913675D01*
X155243762Y-78979556D01*
X155175103Y-79042064D01*
X155080250Y-79062900D01*
X155042150Y-79061312D01*
X155004050Y-79056550D01*
X155004050Y-78697775D01*
X154808787Y-78697775D01*
X154808787Y-79188312D01*
X154917531Y-79216887D01*
X154999089Y-79228794D01*
X155096125Y-79232762D01*
X155183636Y-79224627D01*
X155262019Y-79200219D01*
X155330480Y-79159737D01*
X155388225Y-79103381D01*
X155434659Y-79031150D01*
X155469187Y-78943044D01*
X155490619Y-78839261D01*
X155497762Y-78720000D01*
X155489428Y-78601930D01*
X155464425Y-78498544D01*
X155425134Y-78410239D01*
X155373937Y-78337412D01*
X155311628Y-78280461D01*
X155239000Y-78239781D01*
X155158434Y-78215373D01*
X155072312Y-78207237D01*
X154969919Y-78215969D01*
X154891337Y-78235812D01*
X154836569Y-78259625D01*
X154804025Y-78278675D01*
X154673850Y-78278675D01*
X154673850Y-78229462D01*
X154516687Y-78229462D01*
X154472237Y-78302289D01*
X154427787Y-78381069D01*
X154383933Y-78462627D01*
X154341269Y-78543787D01*
X154300787Y-78623559D01*
X154263481Y-78700950D01*
X154230342Y-78772387D01*
X154202362Y-78834300D01*
X154202362Y-78229462D01*
X154026150Y-78229462D01*
X154026150Y-79212125D01*
X153802174Y-79212125D01*
X153867400Y-79201012D01*
X153867400Y-78242162D01*
X153741987Y-78223112D01*
X153632450Y-78218350D01*
X153539780Y-78225494D01*
X153455444Y-78246925D01*
X153381427Y-78283636D01*
X153319712Y-78336619D01*
X153270302Y-78406072D01*
X153233194Y-78492194D01*
X153209977Y-78596373D01*
X153202237Y-78720000D01*
X152028017Y-78720000D01*
X152032078Y-78637323D01*
X152044224Y-78555443D01*
X152064337Y-78475147D01*
X152092224Y-78397210D01*
X152127615Y-78322381D01*
X152170171Y-78251381D01*
X152219480Y-78184895D01*
X152275070Y-78123561D01*
X152336403Y-78067972D01*
X152402889Y-78018662D01*
X152473889Y-77976107D01*
X152548718Y-77940715D01*
X152626656Y-77912829D01*
X152706951Y-77892716D01*
X152788832Y-77880570D01*
X152871508Y-77876508D01*
X155828492Y-77876508D01*
X155911168Y-77880570D01*
X155993049Y-77892716D01*
X156073344Y-77912829D01*
X156151282Y-77940715D01*
X156226111Y-77976107D01*
X156297111Y-78018662D01*
X156363597Y-78067972D01*
X156424930Y-78123561D01*
X156480520Y-78184895D01*
X156529829Y-78251381D01*
X156572385Y-78322381D01*
X156607776Y-78397210D01*
X156635663Y-78475147D01*
X156655776Y-78555443D01*
X156667922Y-78637323D01*
X156671983Y-78720000D01*
X156667922Y-78802677D01*
X156655776Y-78884557D01*
X156635663Y-78964853D01*
X156607776Y-79042790D01*
X156572385Y-79117619D01*
X156529829Y-79188619D01*
X156480520Y-79255105D01*
X156424930Y-79316439D01*
X156363597Y-79372028D01*
X156297111Y-79421338D01*
X156226111Y-79463893D01*
X156151282Y-79499285D01*
X156073344Y-79527171D01*
X155993049Y-79547284D01*
X155911168Y-79559430D01*
X155828492Y-79563492D01*
X152871508Y-79563492D01*
X152788832Y-79559430D01*
G37*
%TO.C,kibuzzard-63272079*%
G36*
X140310894Y-79559430D02*
G01*
X140229014Y-79547284D01*
X140148718Y-79527171D01*
X140070781Y-79499285D01*
X139995952Y-79463893D01*
X139924952Y-79421338D01*
X139858465Y-79372028D01*
X139797132Y-79316439D01*
X139741543Y-79255105D01*
X139692233Y-79188619D01*
X139677777Y-79164500D01*
X140724300Y-79164500D01*
X140836219Y-79211331D01*
X140912220Y-79227405D01*
X140998937Y-79232762D01*
X141126643Y-79217946D01*
X141232476Y-79173496D01*
X141242671Y-79164500D01*
X141518050Y-79164500D01*
X141629969Y-79211331D01*
X141705970Y-79227405D01*
X141792687Y-79232762D01*
X141920393Y-79217946D01*
X142026226Y-79173496D01*
X142110187Y-79099412D01*
X142158110Y-79025693D01*
X142192341Y-78937884D01*
X142212879Y-78835987D01*
X142219725Y-78720000D01*
X142211391Y-78604509D01*
X142186387Y-78502512D01*
X142146502Y-78414605D01*
X142093519Y-78341381D01*
X142028431Y-78283437D01*
X141952231Y-78241369D01*
X141912450Y-78229462D01*
X142281637Y-78229462D01*
X142302870Y-78330269D01*
X142328469Y-78442187D01*
X142358234Y-78562639D01*
X142391969Y-78689044D01*
X142416575Y-78775827D01*
X142442769Y-78863669D01*
X142470550Y-78952569D01*
X142499478Y-79041028D01*
X142529111Y-79127547D01*
X142559450Y-79212125D01*
X142761062Y-79212125D01*
X142800353Y-79095444D01*
X142842025Y-78964475D01*
X142870071Y-78872488D01*
X142897058Y-78780678D01*
X142922988Y-78689044D01*
X142947506Y-78599174D01*
X142970260Y-78512655D01*
X142991250Y-78429487D01*
X143017444Y-78318362D01*
X143035700Y-78229462D01*
X142829325Y-78229462D01*
X142817419Y-78311814D01*
X142800750Y-78406469D01*
X142780708Y-78508862D01*
X142758681Y-78614431D01*
X142734869Y-78720794D01*
X142709469Y-78825569D01*
X142683473Y-78924192D01*
X142657875Y-79012100D01*
X142632475Y-78925383D01*
X142607075Y-78827156D01*
X142582469Y-78722381D01*
X142559450Y-78616019D01*
X142538019Y-78510252D01*
X142518175Y-78407262D01*
X142500712Y-78312012D01*
X142486425Y-78229462D01*
X142281637Y-78229462D01*
X141912450Y-78229462D01*
X141866705Y-78215770D01*
X141773637Y-78207237D01*
X141679181Y-78215969D01*
X141605362Y-78235812D01*
X141552181Y-78259625D01*
X141519637Y-78278675D01*
X141570438Y-78434250D01*
X141658544Y-78393769D01*
X141776812Y-78377100D01*
X141866506Y-78393769D01*
X141944294Y-78449331D01*
X141999856Y-78553312D01*
X142015930Y-78626337D01*
X142021287Y-78715237D01*
X142014849Y-78818690D01*
X141995535Y-78904679D01*
X141963344Y-78973206D01*
X141886945Y-79040477D01*
X141773637Y-79062900D01*
X141647431Y-79045437D01*
X141567262Y-79010512D01*
X141518050Y-79164500D01*
X141242671Y-79164500D01*
X141316437Y-79099412D01*
X141364360Y-79025693D01*
X141398591Y-78937884D01*
X141419129Y-78835987D01*
X141425975Y-78720000D01*
X141417641Y-78604509D01*
X141392637Y-78502512D01*
X141352752Y-78414605D01*
X141299769Y-78341381D01*
X141234681Y-78283437D01*
X141158481Y-78241369D01*
X141072955Y-78215770D01*
X140979887Y-78207237D01*
X140885431Y-78215969D01*
X140811612Y-78235812D01*
X140758431Y-78259625D01*
X140725887Y-78278675D01*
X140776687Y-78434250D01*
X140864794Y-78393769D01*
X140983062Y-78377100D01*
X141072756Y-78393769D01*
X141150544Y-78449331D01*
X141206106Y-78553312D01*
X141222180Y-78626337D01*
X141227537Y-78715237D01*
X141221099Y-78818690D01*
X141201785Y-78904679D01*
X141169594Y-78973206D01*
X141093195Y-79040477D01*
X140979887Y-79062900D01*
X140853681Y-79045437D01*
X140773512Y-79010512D01*
X140724300Y-79164500D01*
X139677777Y-79164500D01*
X139649678Y-79117619D01*
X139614286Y-79042790D01*
X139586400Y-78964853D01*
X139566287Y-78884557D01*
X139554141Y-78802677D01*
X139550079Y-78720000D01*
X139554141Y-78637323D01*
X139566287Y-78555443D01*
X139586400Y-78475147D01*
X139614286Y-78397210D01*
X139649678Y-78322381D01*
X139692233Y-78251381D01*
X139741543Y-78184895D01*
X139797132Y-78123561D01*
X139858465Y-78067972D01*
X139924952Y-78018662D01*
X139995952Y-77976107D01*
X140070781Y-77940715D01*
X140148718Y-77912829D01*
X140229014Y-77892716D01*
X140310894Y-77880570D01*
X140393571Y-77876508D01*
X143366429Y-77876508D01*
X143449106Y-77880570D01*
X143530986Y-77892716D01*
X143611282Y-77912829D01*
X143689219Y-77940715D01*
X143764048Y-77976107D01*
X143835048Y-78018662D01*
X143901535Y-78067972D01*
X143962868Y-78123561D01*
X144018457Y-78184895D01*
X144067767Y-78251381D01*
X144110322Y-78322381D01*
X144145714Y-78397210D01*
X144173600Y-78475147D01*
X144193713Y-78555443D01*
X144205859Y-78637323D01*
X144209921Y-78720000D01*
X144205859Y-78802677D01*
X144193713Y-78884557D01*
X144173600Y-78964853D01*
X144145714Y-79042790D01*
X144110322Y-79117619D01*
X144067767Y-79188619D01*
X144018457Y-79255105D01*
X143962868Y-79316439D01*
X143901535Y-79372028D01*
X143835048Y-79421338D01*
X143764048Y-79463893D01*
X143689219Y-79499285D01*
X143611282Y-79527171D01*
X143530986Y-79547284D01*
X143449106Y-79559430D01*
X143366429Y-79563492D01*
X140393571Y-79563492D01*
X140310894Y-79559430D01*
G37*
%TO.C,U1*%
X118800000Y-77450000D02*
X118800000Y-75950000D01*
X118800000Y-75950000D02*
X127800000Y-75950000D01*
X115000000Y-77450000D02*
X131600000Y-77450000D01*
X115000000Y-102850000D02*
X115000000Y-77450000D01*
X127800000Y-75950000D02*
X127800000Y-77450000D01*
X131600000Y-102850000D02*
X115000000Y-102850000D01*
X127800000Y-77450000D02*
X118800000Y-77450000D01*
X131600000Y-77450000D02*
X131600000Y-102850000D01*
D12*
%TO.C,U2*%
X144050000Y-90500000D02*
G75*
G03*
X144050000Y-90500000I-5000000J0D01*
G01*
%TD*%
M02*
