%TF.GenerationSoftware,KiCad,Pcbnew,(6.0.6-0)*%
%TF.CreationDate,2022-09-18T15:36:00+02:00*%
%TF.ProjectId,magnetic-18350-holder-charger,6d61676e-6574-4696-932d-31383335302d,rev?*%
%TF.SameCoordinates,Original*%
%TF.FileFunction,Copper,L1,Top*%
%TF.FilePolarity,Positive*%
%FSLAX46Y46*%
G04 Gerber Fmt 4.6, Leading zero omitted, Abs format (unit mm)*
G04 Created by KiCad (PCBNEW (6.0.6-0)) date 2022-09-18 15:36:00*
%MOMM*%
%LPD*%
G01*
G04 APERTURE LIST*
%TA.AperFunction,SMDPad,CuDef*%
%ADD10R,2.000000X2.000000*%
%TD*%
%TA.AperFunction,ComponentPad*%
%ADD11R,1.500000X3.000000*%
%TD*%
%TA.AperFunction,ComponentPad*%
%ADD12C,2.000000*%
%TD*%
%TA.AperFunction,ComponentPad*%
%ADD13R,2.500000X1.500000*%
%TD*%
%TA.AperFunction,Conductor*%
%ADD14C,1.000000*%
%TD*%
G04 APERTURE END LIST*
D10*
%TO.P,VBAT-,1*%
%TO.N,Net-(U1-Pad6)*%
X175300000Y-102500000D03*
%TD*%
%TO.P,VBAT+,1*%
%TO.N,Net-(U1-Pad5)*%
X102800000Y-102500000D03*
%TD*%
D11*
%TO.P,U3,1,V+*%
%TO.N,Net-(U1-Pad5)*%
X102814644Y-90521091D03*
%TO.P,U3,2,V-*%
%TO.N,Net-(U1-Pad6)*%
X175314644Y-90521091D03*
%TD*%
D12*
%TO.P,U2,1,V+*%
%TO.N,Net-(U1-Pad3)*%
X139050000Y-90500000D03*
D13*
%TO.P,U2,2,GND*%
%TO.N,GND*%
X139050000Y-88000000D03*
%TO.P,U2,3,GND*%
X139050000Y-93000000D03*
%TD*%
D14*
%TO.N,Net-(U1-Pad6)*%
X175314644Y-90521091D02*
X175314644Y-102485356D01*
X175314644Y-102485356D02*
X175300000Y-102500000D01*
%TO.N,Net-(U1-Pad5)*%
X102814644Y-90521091D02*
X102814644Y-102485356D01*
X102814644Y-102485356D02*
X102800000Y-102500000D01*
%TD*%
%TA.AperFunction,Conductor*%
%TO.N,GND*%
G36*
X176988729Y-76911453D02*
G01*
X176995360Y-76912531D01*
X177010282Y-76914957D01*
X177027538Y-76912818D01*
X177051454Y-76912143D01*
X177195923Y-76921816D01*
X177307942Y-76929317D01*
X177322971Y-76931236D01*
X177602420Y-76984161D01*
X177617101Y-76987868D01*
X177882068Y-77072011D01*
X177888177Y-77073951D01*
X177902315Y-77079396D01*
X178161101Y-77197394D01*
X178174484Y-77204497D01*
X178413121Y-77350190D01*
X178417227Y-77352697D01*
X178429661Y-77361355D01*
X178652870Y-77537626D01*
X178664174Y-77547714D01*
X178864609Y-77749497D01*
X178874619Y-77760867D01*
X179047606Y-77982964D01*
X179049383Y-77985246D01*
X179057956Y-77997735D01*
X179203347Y-78239507D01*
X179204533Y-78241479D01*
X179211546Y-78254909D01*
X179327804Y-78514477D01*
X179333154Y-78528651D01*
X179417415Y-78800290D01*
X179421026Y-78815005D01*
X179472075Y-79094804D01*
X179473893Y-79109845D01*
X179488925Y-79359450D01*
X179487699Y-79385448D01*
X179487690Y-79386170D01*
X179486309Y-79395041D01*
X179487473Y-79403944D01*
X179487473Y-79403949D01*
X179490436Y-79426611D01*
X179491500Y-79442947D01*
X179491500Y-101950633D01*
X179490000Y-101970018D01*
X179487690Y-101984851D01*
X179487690Y-101984855D01*
X179486309Y-101993724D01*
X179488558Y-102010919D01*
X179489391Y-102034863D01*
X179473794Y-102292710D01*
X179471960Y-102307814D01*
X179420477Y-102588754D01*
X179416836Y-102603527D01*
X179331859Y-102876227D01*
X179326466Y-102890445D01*
X179209243Y-103150906D01*
X179202172Y-103164379D01*
X179054405Y-103408813D01*
X179045762Y-103421334D01*
X178869615Y-103646171D01*
X178859525Y-103657560D01*
X178657560Y-103859525D01*
X178646171Y-103869615D01*
X178421334Y-104045762D01*
X178408813Y-104054405D01*
X178164379Y-104202172D01*
X178150908Y-104209242D01*
X177890445Y-104326466D01*
X177876231Y-104331858D01*
X177603527Y-104416836D01*
X177588760Y-104420475D01*
X177379786Y-104458771D01*
X177307814Y-104471960D01*
X177292710Y-104473794D01*
X177042096Y-104488953D01*
X177015278Y-104487692D01*
X177015149Y-104487690D01*
X177006276Y-104486309D01*
X176997373Y-104487473D01*
X176997369Y-104487473D01*
X176974677Y-104490440D01*
X176958355Y-104491504D01*
X101022674Y-104500174D01*
X101001974Y-104498463D01*
X100981669Y-104495083D01*
X100964377Y-104497160D01*
X100940476Y-104497746D01*
X100837038Y-104490440D01*
X100684757Y-104479684D01*
X100669773Y-104477717D01*
X100391173Y-104423983D01*
X100376530Y-104420235D01*
X100106366Y-104333527D01*
X100092278Y-104328054D01*
X99834438Y-104209621D01*
X99821108Y-104202500D01*
X99579311Y-104054053D01*
X99566928Y-104045387D01*
X99451432Y-103953767D01*
X99344639Y-103869051D01*
X99333386Y-103858967D01*
X99133811Y-103657283D01*
X99123849Y-103645929D01*
X99047930Y-103548134D01*
X101291500Y-103548134D01*
X101298255Y-103610316D01*
X101349385Y-103746705D01*
X101436739Y-103863261D01*
X101553295Y-103950615D01*
X101689684Y-104001745D01*
X101751866Y-104008500D01*
X103848134Y-104008500D01*
X103910316Y-104001745D01*
X104046705Y-103950615D01*
X104163261Y-103863261D01*
X104250615Y-103746705D01*
X104301745Y-103610316D01*
X104308500Y-103548134D01*
X173791500Y-103548134D01*
X173798255Y-103610316D01*
X173849385Y-103746705D01*
X173936739Y-103863261D01*
X174053295Y-103950615D01*
X174189684Y-104001745D01*
X174251866Y-104008500D01*
X176348134Y-104008500D01*
X176410316Y-104001745D01*
X176546705Y-103950615D01*
X176663261Y-103863261D01*
X176750615Y-103746705D01*
X176801745Y-103610316D01*
X176808500Y-103548134D01*
X176808500Y-101451866D01*
X176801745Y-101389684D01*
X176750615Y-101253295D01*
X176663261Y-101136739D01*
X176546705Y-101049385D01*
X176410316Y-100998255D01*
X176411000Y-100996430D01*
X176358358Y-100966361D01*
X176325533Y-100903408D01*
X176323144Y-100878989D01*
X176323144Y-92525893D01*
X176343146Y-92457772D01*
X176373579Y-92425067D01*
X176420725Y-92389733D01*
X176427905Y-92384352D01*
X176515259Y-92267796D01*
X176566389Y-92131407D01*
X176573144Y-92069225D01*
X176573144Y-88972957D01*
X176566389Y-88910775D01*
X176515259Y-88774386D01*
X176427905Y-88657830D01*
X176311349Y-88570476D01*
X176174960Y-88519346D01*
X176112778Y-88512591D01*
X174516510Y-88512591D01*
X174454328Y-88519346D01*
X174317939Y-88570476D01*
X174201383Y-88657830D01*
X174114029Y-88774386D01*
X174062899Y-88910775D01*
X174056144Y-88972957D01*
X174056144Y-92069225D01*
X174062899Y-92131407D01*
X174114029Y-92267796D01*
X174201383Y-92384352D01*
X174208563Y-92389733D01*
X174255709Y-92425067D01*
X174298224Y-92481926D01*
X174306144Y-92525893D01*
X174306144Y-100872550D01*
X174286142Y-100940671D01*
X174232486Y-100987164D01*
X174205018Y-100994716D01*
X174205222Y-100995575D01*
X174197540Y-100997402D01*
X174189684Y-100998255D01*
X174053295Y-101049385D01*
X173936739Y-101136739D01*
X173849385Y-101253295D01*
X173798255Y-101389684D01*
X173791500Y-101451866D01*
X173791500Y-103548134D01*
X104308500Y-103548134D01*
X104308500Y-101451866D01*
X104301745Y-101389684D01*
X104250615Y-101253295D01*
X104163261Y-101136739D01*
X104046705Y-101049385D01*
X103910316Y-100998255D01*
X103911000Y-100996430D01*
X103858358Y-100966361D01*
X103825533Y-100903408D01*
X103823144Y-100878989D01*
X103823144Y-93794669D01*
X137292001Y-93794669D01*
X137292371Y-93801490D01*
X137297895Y-93852352D01*
X137301521Y-93867604D01*
X137346676Y-93988054D01*
X137355214Y-94003649D01*
X137431715Y-94105724D01*
X137444276Y-94118285D01*
X137546351Y-94194786D01*
X137561946Y-94203324D01*
X137682394Y-94248478D01*
X137697649Y-94252105D01*
X137748514Y-94257631D01*
X137755328Y-94258000D01*
X138777885Y-94258000D01*
X138793124Y-94253525D01*
X138794329Y-94252135D01*
X138796000Y-94244452D01*
X138796000Y-94239884D01*
X139304000Y-94239884D01*
X139308475Y-94255123D01*
X139309865Y-94256328D01*
X139317548Y-94257999D01*
X140344669Y-94257999D01*
X140351490Y-94257629D01*
X140402352Y-94252105D01*
X140417604Y-94248479D01*
X140538054Y-94203324D01*
X140553649Y-94194786D01*
X140655724Y-94118285D01*
X140668285Y-94105724D01*
X140744786Y-94003649D01*
X140753324Y-93988054D01*
X140798478Y-93867606D01*
X140802105Y-93852351D01*
X140807631Y-93801486D01*
X140808000Y-93794672D01*
X140808000Y-93272115D01*
X140803525Y-93256876D01*
X140802135Y-93255671D01*
X140794452Y-93254000D01*
X139322115Y-93254000D01*
X139306876Y-93258475D01*
X139305671Y-93259865D01*
X139304000Y-93267548D01*
X139304000Y-94239884D01*
X138796000Y-94239884D01*
X138796000Y-93272115D01*
X138791525Y-93256876D01*
X138790135Y-93255671D01*
X138782452Y-93254000D01*
X137310116Y-93254000D01*
X137294877Y-93258475D01*
X137293672Y-93259865D01*
X137292001Y-93267548D01*
X137292001Y-93794669D01*
X103823144Y-93794669D01*
X103823144Y-92727885D01*
X137292000Y-92727885D01*
X137296475Y-92743124D01*
X137297865Y-92744329D01*
X137305548Y-92746000D01*
X140789884Y-92746000D01*
X140805123Y-92741525D01*
X140806328Y-92740135D01*
X140807999Y-92732452D01*
X140807999Y-92205331D01*
X140807629Y-92198510D01*
X140802105Y-92147648D01*
X140798479Y-92132396D01*
X140753324Y-92011946D01*
X140744786Y-91996351D01*
X140668285Y-91894276D01*
X140655724Y-91881715D01*
X140553649Y-91805214D01*
X140538054Y-91796676D01*
X140417606Y-91751522D01*
X140402351Y-91747895D01*
X140351486Y-91742369D01*
X140344672Y-91742000D01*
X140246356Y-91742000D01*
X140178235Y-91721998D01*
X140131742Y-91668342D01*
X140121638Y-91598068D01*
X140150545Y-91534169D01*
X140274176Y-91389416D01*
X140276755Y-91385208D01*
X140276759Y-91385202D01*
X140395654Y-91191183D01*
X140398240Y-91186963D01*
X140489105Y-90967594D01*
X140544535Y-90736711D01*
X140563165Y-90500000D01*
X140544535Y-90263289D01*
X140489105Y-90032406D01*
X140398240Y-89813037D01*
X140395654Y-89808817D01*
X140276759Y-89614798D01*
X140276755Y-89614792D01*
X140274176Y-89610584D01*
X140150544Y-89465829D01*
X140121513Y-89401040D01*
X140132118Y-89330840D01*
X140178993Y-89277517D01*
X140246355Y-89257999D01*
X140344669Y-89257999D01*
X140351490Y-89257629D01*
X140402352Y-89252105D01*
X140417604Y-89248479D01*
X140538054Y-89203324D01*
X140553649Y-89194786D01*
X140655724Y-89118285D01*
X140668285Y-89105724D01*
X140744786Y-89003649D01*
X140753324Y-88988054D01*
X140798478Y-88867606D01*
X140802105Y-88852351D01*
X140807631Y-88801486D01*
X140808000Y-88794672D01*
X140808000Y-88272115D01*
X140803525Y-88256876D01*
X140802135Y-88255671D01*
X140794452Y-88254000D01*
X137310116Y-88254000D01*
X137294877Y-88258475D01*
X137293672Y-88259865D01*
X137292001Y-88267548D01*
X137292001Y-88794669D01*
X137292371Y-88801490D01*
X137297895Y-88852352D01*
X137301521Y-88867604D01*
X137346676Y-88988054D01*
X137355214Y-89003649D01*
X137431715Y-89105724D01*
X137444276Y-89118285D01*
X137546351Y-89194786D01*
X137561946Y-89203324D01*
X137682394Y-89248478D01*
X137697649Y-89252105D01*
X137748514Y-89257631D01*
X137755328Y-89258000D01*
X137853644Y-89258000D01*
X137921765Y-89278002D01*
X137968258Y-89331658D01*
X137978362Y-89401932D01*
X137949455Y-89465831D01*
X137825824Y-89610584D01*
X137823245Y-89614792D01*
X137823241Y-89614798D01*
X137704346Y-89808817D01*
X137701760Y-89813037D01*
X137610895Y-90032406D01*
X137555465Y-90263289D01*
X137536835Y-90500000D01*
X137555465Y-90736711D01*
X137610895Y-90967594D01*
X137701760Y-91186963D01*
X137704346Y-91191183D01*
X137823241Y-91385202D01*
X137823245Y-91385208D01*
X137825824Y-91389416D01*
X137949455Y-91534169D01*
X137949456Y-91534170D01*
X137978487Y-91598960D01*
X137967882Y-91669160D01*
X137921007Y-91722483D01*
X137853645Y-91742001D01*
X137755331Y-91742001D01*
X137748510Y-91742371D01*
X137697648Y-91747895D01*
X137682396Y-91751521D01*
X137561946Y-91796676D01*
X137546351Y-91805214D01*
X137444276Y-91881715D01*
X137431715Y-91894276D01*
X137355214Y-91996351D01*
X137346676Y-92011946D01*
X137301522Y-92132394D01*
X137297895Y-92147649D01*
X137292369Y-92198514D01*
X137292000Y-92205328D01*
X137292000Y-92727885D01*
X103823144Y-92727885D01*
X103823144Y-92525893D01*
X103843146Y-92457772D01*
X103873579Y-92425067D01*
X103920725Y-92389733D01*
X103927905Y-92384352D01*
X104015259Y-92267796D01*
X104066389Y-92131407D01*
X104073144Y-92069225D01*
X104073144Y-88972957D01*
X104066389Y-88910775D01*
X104015259Y-88774386D01*
X103927905Y-88657830D01*
X103811349Y-88570476D01*
X103674960Y-88519346D01*
X103612778Y-88512591D01*
X102016510Y-88512591D01*
X101954328Y-88519346D01*
X101817939Y-88570476D01*
X101701383Y-88657830D01*
X101614029Y-88774386D01*
X101562899Y-88910775D01*
X101556144Y-88972957D01*
X101556144Y-92069225D01*
X101562899Y-92131407D01*
X101614029Y-92267796D01*
X101701383Y-92384352D01*
X101708563Y-92389733D01*
X101755709Y-92425067D01*
X101798224Y-92481926D01*
X101806144Y-92525893D01*
X101806144Y-100872550D01*
X101786142Y-100940671D01*
X101732486Y-100987164D01*
X101705018Y-100994716D01*
X101705222Y-100995575D01*
X101697540Y-100997402D01*
X101689684Y-100998255D01*
X101553295Y-101049385D01*
X101436739Y-101136739D01*
X101349385Y-101253295D01*
X101298255Y-101389684D01*
X101291500Y-101451866D01*
X101291500Y-103548134D01*
X99047930Y-103548134D01*
X98949853Y-103421795D01*
X98941321Y-103409326D01*
X98795413Y-103165969D01*
X98788433Y-103152563D01*
X98672721Y-102893503D01*
X98667396Y-102879359D01*
X98583533Y-102608305D01*
X98579939Y-102593624D01*
X98529133Y-102314466D01*
X98527324Y-102299461D01*
X98512376Y-102050646D01*
X98513624Y-102024235D01*
X98513629Y-102023833D01*
X98515011Y-102014959D01*
X98513847Y-102006056D01*
X98513847Y-102006049D01*
X98510884Y-101983389D01*
X98509820Y-101967053D01*
X98509820Y-87727885D01*
X137292000Y-87727885D01*
X137296475Y-87743124D01*
X137297865Y-87744329D01*
X137305548Y-87746000D01*
X138777885Y-87746000D01*
X138793124Y-87741525D01*
X138794329Y-87740135D01*
X138796000Y-87732452D01*
X138796000Y-87727885D01*
X139304000Y-87727885D01*
X139308475Y-87743124D01*
X139309865Y-87744329D01*
X139317548Y-87746000D01*
X140789884Y-87746000D01*
X140805123Y-87741525D01*
X140806328Y-87740135D01*
X140807999Y-87732452D01*
X140807999Y-87205331D01*
X140807629Y-87198510D01*
X140802105Y-87147648D01*
X140798479Y-87132396D01*
X140753324Y-87011946D01*
X140744786Y-86996351D01*
X140668285Y-86894276D01*
X140655724Y-86881715D01*
X140553649Y-86805214D01*
X140538054Y-86796676D01*
X140417606Y-86751522D01*
X140402351Y-86747895D01*
X140351486Y-86742369D01*
X140344672Y-86742000D01*
X139322115Y-86742000D01*
X139306876Y-86746475D01*
X139305671Y-86747865D01*
X139304000Y-86755548D01*
X139304000Y-87727885D01*
X138796000Y-87727885D01*
X138796000Y-86760116D01*
X138791525Y-86744877D01*
X138790135Y-86743672D01*
X138782452Y-86742001D01*
X137755331Y-86742001D01*
X137748510Y-86742371D01*
X137697648Y-86747895D01*
X137682396Y-86751521D01*
X137561946Y-86796676D01*
X137546351Y-86805214D01*
X137444276Y-86881715D01*
X137431715Y-86894276D01*
X137355214Y-86996351D01*
X137346676Y-87011946D01*
X137301522Y-87132394D01*
X137297895Y-87147649D01*
X137292369Y-87198514D01*
X137292000Y-87205328D01*
X137292000Y-87727885D01*
X98509820Y-87727885D01*
X98509820Y-79450684D01*
X98511320Y-79431299D01*
X98513630Y-79416466D01*
X98513630Y-79416462D01*
X98515011Y-79407593D01*
X98512759Y-79390370D01*
X98511924Y-79366447D01*
X98527407Y-79109845D01*
X98527439Y-79109304D01*
X98529264Y-79094238D01*
X98535918Y-79057839D01*
X98580503Y-78813938D01*
X98584123Y-78799213D01*
X98668698Y-78527104D01*
X98674067Y-78512910D01*
X98731924Y-78384006D01*
X98790747Y-78252951D01*
X98797783Y-78239507D01*
X98944875Y-77995468D01*
X98953479Y-77982964D01*
X99128847Y-77758385D01*
X99138887Y-77747012D01*
X99339999Y-77545139D01*
X99351330Y-77535060D01*
X99575260Y-77358835D01*
X99587716Y-77350196D01*
X99831197Y-77202185D01*
X99844617Y-77195096D01*
X100099812Y-77079396D01*
X100104144Y-77077432D01*
X100118311Y-77072013D01*
X100390089Y-76986415D01*
X100404805Y-76982737D01*
X100684919Y-76930439D01*
X100699967Y-76928559D01*
X100931986Y-76913681D01*
X100949921Y-76912531D01*
X100976438Y-76913681D01*
X100976788Y-76913684D01*
X100985659Y-76915031D01*
X101016009Y-76910946D01*
X101032816Y-76909820D01*
X176968510Y-76909820D01*
X176988729Y-76911453D01*
G37*
%TD.AperFunction*%
%TD*%
M02*
