%TF.GenerationSoftware,KiCad,Pcbnew,(6.0.6-0)*%
%TF.CreationDate,2022-09-18T15:36:00+02:00*%
%TF.ProjectId,magnetic-18350-holder-charger,6d61676e-6574-4696-932d-31383335302d,rev?*%
%TF.SameCoordinates,Original*%
%TF.FileFunction,Legend,Bot*%
%TF.FilePolarity,Positive*%
%FSLAX46Y46*%
G04 Gerber Fmt 4.6, Leading zero omitted, Abs format (unit mm)*
G04 Created by KiCad (PCBNEW (6.0.6-0)) date 2022-09-18 15:36:00*
%MOMM*%
%LPD*%
G01*
G04 APERTURE LIST*
%ADD10C,0.150000*%
%ADD11C,0.300000*%
%ADD12C,0.120000*%
G04 APERTURE END LIST*
D10*
%TO.C,U2*%
X145452380Y-89738095D02*
X146261904Y-89738095D01*
X146357142Y-89785714D01*
X146404761Y-89833333D01*
X146452380Y-89928571D01*
X146452380Y-90119047D01*
X146404761Y-90214285D01*
X146357142Y-90261904D01*
X146261904Y-90309523D01*
X145452380Y-90309523D01*
X145547619Y-90738095D02*
X145500000Y-90785714D01*
X145452380Y-90880952D01*
X145452380Y-91119047D01*
X145500000Y-91214285D01*
X145547619Y-91261904D01*
X145642857Y-91309523D01*
X145738095Y-91309523D01*
X145880952Y-91261904D01*
X146452380Y-90690476D01*
X146452380Y-91309523D01*
%TO.C,U1*%
X122102380Y-89188095D02*
X122911904Y-89188095D01*
X123007142Y-89235714D01*
X123054761Y-89283333D01*
X123102380Y-89378571D01*
X123102380Y-89569047D01*
X123054761Y-89664285D01*
X123007142Y-89711904D01*
X122911904Y-89759523D01*
X122102380Y-89759523D01*
X123102380Y-90759523D02*
X123102380Y-90188095D01*
X123102380Y-90473809D02*
X122102380Y-90473809D01*
X122245238Y-90378571D01*
X122340476Y-90283333D01*
X122388095Y-90188095D01*
X116002380Y-96626190D02*
X117002380Y-96959523D01*
X116002380Y-97292857D01*
X117002380Y-97769047D02*
X116954761Y-97673809D01*
X116907142Y-97626190D01*
X116811904Y-97578571D01*
X116526190Y-97578571D01*
X116430952Y-97626190D01*
X116383333Y-97673809D01*
X116335714Y-97769047D01*
X116335714Y-97911904D01*
X116383333Y-98007142D01*
X116430952Y-98054761D01*
X116526190Y-98102380D01*
X116811904Y-98102380D01*
X116907142Y-98054761D01*
X116954761Y-98007142D01*
X117002380Y-97911904D01*
X117002380Y-97769047D01*
X116335714Y-98959523D02*
X117002380Y-98959523D01*
X116335714Y-98530952D02*
X116859523Y-98530952D01*
X116954761Y-98578571D01*
X117002380Y-98673809D01*
X117002380Y-98816666D01*
X116954761Y-98911904D01*
X116907142Y-98959523D01*
X116335714Y-99292857D02*
X116335714Y-99673809D01*
X116002380Y-99435714D02*
X116859523Y-99435714D01*
X116954761Y-99483333D01*
X117002380Y-99578571D01*
X117002380Y-99673809D01*
X129650000Y-97588095D02*
X129602380Y-97492857D01*
X129602380Y-97350000D01*
X129650000Y-97207142D01*
X129745238Y-97111904D01*
X129840476Y-97064285D01*
X130030952Y-97016666D01*
X130173809Y-97016666D01*
X130364285Y-97064285D01*
X130459523Y-97111904D01*
X130554761Y-97207142D01*
X130602380Y-97350000D01*
X130602380Y-97445238D01*
X130554761Y-97588095D01*
X130507142Y-97635714D01*
X130173809Y-97635714D01*
X130173809Y-97445238D01*
X130602380Y-98064285D02*
X129602380Y-98064285D01*
X130602380Y-98635714D01*
X129602380Y-98635714D01*
X130602380Y-99111904D02*
X129602380Y-99111904D01*
X129602380Y-99350000D01*
X129650000Y-99492857D01*
X129745238Y-99588095D01*
X129840476Y-99635714D01*
X130030952Y-99683333D01*
X130173809Y-99683333D01*
X130364285Y-99635714D01*
X130459523Y-99588095D01*
X130554761Y-99492857D01*
X130602380Y-99350000D01*
X130602380Y-99111904D01*
X116052380Y-80626190D02*
X117052380Y-80959523D01*
X116052380Y-81292857D01*
X117052380Y-81626190D02*
X116385714Y-81626190D01*
X116052380Y-81626190D02*
X116100000Y-81578571D01*
X116147619Y-81626190D01*
X116100000Y-81673809D01*
X116052380Y-81626190D01*
X116147619Y-81626190D01*
X116385714Y-82102380D02*
X117052380Y-82102380D01*
X116480952Y-82102380D02*
X116433333Y-82150000D01*
X116385714Y-82245238D01*
X116385714Y-82388095D01*
X116433333Y-82483333D01*
X116528571Y-82530952D01*
X117052380Y-82530952D01*
X129650000Y-81238095D02*
X129602380Y-81142857D01*
X129602380Y-81000000D01*
X129650000Y-80857142D01*
X129745238Y-80761904D01*
X129840476Y-80714285D01*
X130030952Y-80666666D01*
X130173809Y-80666666D01*
X130364285Y-80714285D01*
X130459523Y-80761904D01*
X130554761Y-80857142D01*
X130602380Y-81000000D01*
X130602380Y-81095238D01*
X130554761Y-81238095D01*
X130507142Y-81285714D01*
X130173809Y-81285714D01*
X130173809Y-81095238D01*
X130602380Y-81714285D02*
X129602380Y-81714285D01*
X130602380Y-82285714D01*
X129602380Y-82285714D01*
X130602380Y-82761904D02*
X129602380Y-82761904D01*
X129602380Y-83000000D01*
X129650000Y-83142857D01*
X129745238Y-83238095D01*
X129840476Y-83285714D01*
X130030952Y-83333333D01*
X130173809Y-83333333D01*
X130364285Y-83285714D01*
X130459523Y-83238095D01*
X130554761Y-83142857D01*
X130602380Y-83000000D01*
X130602380Y-82761904D01*
X126652380Y-95438095D02*
X127652380Y-95771428D01*
X126652380Y-96104761D01*
X127128571Y-96771428D02*
X127176190Y-96914285D01*
X127223809Y-96961904D01*
X127319047Y-97009523D01*
X127461904Y-97009523D01*
X127557142Y-96961904D01*
X127604761Y-96914285D01*
X127652380Y-96819047D01*
X127652380Y-96438095D01*
X126652380Y-96438095D01*
X126652380Y-96771428D01*
X126700000Y-96866666D01*
X126747619Y-96914285D01*
X126842857Y-96961904D01*
X126938095Y-96961904D01*
X127033333Y-96914285D01*
X127080952Y-96866666D01*
X127128571Y-96771428D01*
X127128571Y-96438095D01*
X127366666Y-97390476D02*
X127366666Y-97866666D01*
X127652380Y-97295238D02*
X126652380Y-97628571D01*
X127652380Y-97961904D01*
X126652380Y-98152380D02*
X126652380Y-98723809D01*
X127652380Y-98438095D02*
X126652380Y-98438095D01*
X127271428Y-99057142D02*
X127271428Y-99819047D01*
X118902380Y-95488095D02*
X119902380Y-95821428D01*
X118902380Y-96154761D01*
X119378571Y-96821428D02*
X119426190Y-96964285D01*
X119473809Y-97011904D01*
X119569047Y-97059523D01*
X119711904Y-97059523D01*
X119807142Y-97011904D01*
X119854761Y-96964285D01*
X119902380Y-96869047D01*
X119902380Y-96488095D01*
X118902380Y-96488095D01*
X118902380Y-96821428D01*
X118950000Y-96916666D01*
X118997619Y-96964285D01*
X119092857Y-97011904D01*
X119188095Y-97011904D01*
X119283333Y-96964285D01*
X119330952Y-96916666D01*
X119378571Y-96821428D01*
X119378571Y-96488095D01*
X119616666Y-97440476D02*
X119616666Y-97916666D01*
X119902380Y-97345238D02*
X118902380Y-97678571D01*
X119902380Y-98011904D01*
X118902380Y-98202380D02*
X118902380Y-98773809D01*
X119902380Y-98488095D02*
X118902380Y-98488095D01*
X119521428Y-99107142D02*
X119521428Y-99869047D01*
X119902380Y-99488095D02*
X119140476Y-99488095D01*
D11*
%TO.C,U2*%
X144050000Y-90500000D02*
G75*
G03*
X144050000Y-90500000I-5000000J0D01*
G01*
D12*
%TO.C,U1*%
X115000000Y-102850000D02*
X115000000Y-77450000D01*
X115000000Y-77450000D02*
X131600000Y-77450000D01*
X127800000Y-75950000D02*
X127800000Y-77450000D01*
X131600000Y-102850000D02*
X115000000Y-102850000D01*
X118800000Y-77450000D02*
X118800000Y-75950000D01*
X131600000Y-77450000D02*
X131600000Y-102850000D01*
X127800000Y-77450000D02*
X118800000Y-77450000D01*
X118800000Y-75950000D02*
X127800000Y-75950000D01*
%TD*%
M02*
